<mxfile host="app.diagrams.net" modified="2023-02-27T05:03:43.251Z" agent="5.0 (Windows NT 10.0; Win64; x64) AppleWebKit/537.36 (KHTML, like Gecko) Chrome/110.0.0.0 Safari/537.36" etag="ownGWaHFfsPnFCVTIeFK" version="20.8.23" type="github">
  <diagram name="第 1 页" id="MpJJtZff5AQATM6ygYIF">
    <mxGraphModel dx="1122" dy="540" grid="1" gridSize="10" guides="1" tooltips="1" connect="1" arrows="1" fold="1" page="1" pageScale="1" pageWidth="827" pageHeight="1169" math="0" shadow="0">
      <root>
        <mxCell id="0" />
        <mxCell id="1" parent="0" />
        <mxCell id="arTTNSpRISgWZkCejGCT-1" style="edgeStyle=orthogonalEdgeStyle;rounded=0;orthogonalLoop=1;jettySize=auto;html=1;exitX=1;exitY=0.5;exitDx=0;exitDy=0;" edge="1" parent="1" source="arTTNSpRISgWZkCejGCT-3" target="arTTNSpRISgWZkCejGCT-5">
          <mxGeometry relative="1" as="geometry">
            <Array as="points">
              <mxPoint x="230" y="545" />
              <mxPoint x="230" y="495" />
            </Array>
          </mxGeometry>
        </mxCell>
        <mxCell id="arTTNSpRISgWZkCejGCT-2" style="edgeStyle=orthogonalEdgeStyle;rounded=0;orthogonalLoop=1;jettySize=auto;html=1;exitX=1;exitY=0.5;exitDx=0;exitDy=0;" edge="1" parent="1" source="arTTNSpRISgWZkCejGCT-3" target="arTTNSpRISgWZkCejGCT-7">
          <mxGeometry relative="1" as="geometry">
            <Array as="points">
              <mxPoint x="230" y="545" />
              <mxPoint x="230" y="605" />
            </Array>
          </mxGeometry>
        </mxCell>
        <mxCell id="arTTNSpRISgWZkCejGCT-3" value="ODS" style="rounded=0;whiteSpace=wrap;html=1;" diagramCategory="general" diagramName="Rectangle" vertex="1" parent="1">
          <mxGeometry x="70" y="515" width="120" height="60" as="geometry" />
        </mxCell>
        <mxCell id="arTTNSpRISgWZkCejGCT-4" style="edgeStyle=orthogonalEdgeStyle;rounded=0;orthogonalLoop=1;jettySize=auto;html=1;exitX=1;exitY=0.5;exitDx=0;exitDy=0;entryX=0;entryY=0.5;entryDx=0;entryDy=0;" edge="1" parent="1" source="arTTNSpRISgWZkCejGCT-5" target="arTTNSpRISgWZkCejGCT-12">
          <mxGeometry relative="1" as="geometry" />
        </mxCell>
        <mxCell id="arTTNSpRISgWZkCejGCT-5" value="DWD" style="rounded=0;whiteSpace=wrap;html=1;" diagramCategory="general" diagramName="Rectangle" vertex="1" parent="1">
          <mxGeometry x="295" y="465" width="120" height="60" as="geometry" />
        </mxCell>
        <mxCell id="arTTNSpRISgWZkCejGCT-6" style="edgeStyle=orthogonalEdgeStyle;rounded=0;orthogonalLoop=1;jettySize=auto;html=1;exitX=0.5;exitY=0;exitDx=0;exitDy=0;dashed=1;" edge="1" parent="1" source="arTTNSpRISgWZkCejGCT-7" target="arTTNSpRISgWZkCejGCT-5">
          <mxGeometry relative="1" as="geometry" />
        </mxCell>
        <mxCell id="arTTNSpRISgWZkCejGCT-7" value="DIM" style="rounded=0;whiteSpace=wrap;html=1;" diagramCategory="general" diagramName="Rectangle" vertex="1" parent="1">
          <mxGeometry x="295" y="575" width="120" height="60" as="geometry" />
        </mxCell>
        <mxCell id="arTTNSpRISgWZkCejGCT-9" value="集市层（DM)" style="rounded=0;whiteSpace=wrap;html=1;" diagramCategory="general" diagramName="Rectangle" vertex="1" parent="1">
          <mxGeometry x="780" y="515" width="120" height="60" as="geometry" />
        </mxCell>
        <mxCell id="arTTNSpRISgWZkCejGCT-10" style="edgeStyle=orthogonalEdgeStyle;rounded=0;orthogonalLoop=1;jettySize=auto;html=1;exitX=1;exitY=0.5;exitDx=0;exitDy=0;entryX=0;entryY=0.5;entryDx=0;entryDy=0;" edge="1" parent="1" source="arTTNSpRISgWZkCejGCT-7" target="arTTNSpRISgWZkCejGCT-12">
          <mxGeometry relative="1" as="geometry" />
        </mxCell>
        <mxCell id="arTTNSpRISgWZkCejGCT-11" value="规范依赖链路" style="text;html=1;strokeColor=none;fillColor=none;align=center;verticalAlign=middle;whiteSpace=wrap;rounded=0;" diagramCategory="general" diagramName="text" vertex="1" parent="1">
          <mxGeometry x="60" y="380" width="84" height="20" as="geometry" />
        </mxCell>
        <mxCell id="arTTNSpRISgWZkCejGCT-18" style="edgeStyle=orthogonalEdgeStyle;rounded=0;orthogonalLoop=1;jettySize=auto;html=1;exitX=1;exitY=0.5;exitDx=0;exitDy=0;entryX=0;entryY=0.5;entryDx=0;entryDy=0;fontSize=16;" edge="1" parent="1" source="arTTNSpRISgWZkCejGCT-12" target="arTTNSpRISgWZkCejGCT-17">
          <mxGeometry relative="1" as="geometry" />
        </mxCell>
        <mxCell id="arTTNSpRISgWZkCejGCT-12" value="&lt;b&gt;&lt;font color=&quot;#cc0000&quot;&gt;DWS底表&lt;/font&gt;&lt;/b&gt;" style="rounded=0;whiteSpace=wrap;html=1;strokeColor=#CC0000;strokeWidth=2;" diagramCategory="general" diagramName="Rectangle" vertex="1" parent="1">
          <mxGeometry x="470" y="515" width="120" height="60" as="geometry" />
        </mxCell>
        <mxCell id="arTTNSpRISgWZkCejGCT-13" value="" style="shape=mxgraph.arrows.u_turn_down_arrow;whiteSpace=wrap;html=1;fillColor=#ffffff;strokeColor=#000000;strokeWidth=1;" diagramCategory="arrow" diagramName="UTurnDownArrow" vertex="1" parent="1">
          <mxGeometry x="650" y="460" width="58" height="50" as="geometry" />
        </mxCell>
        <mxCell id="arTTNSpRISgWZkCejGCT-14" value="" style="endArrow=none;dashed=1;html=1;rounded=0;fontSize=16;" edge="1" parent="1">
          <mxGeometry width="50" height="50" relative="1" as="geometry">
            <mxPoint x="270" y="720" as="sourcePoint" />
            <mxPoint x="270" y="410" as="targetPoint" />
          </mxGeometry>
        </mxCell>
        <mxCell id="arTTNSpRISgWZkCejGCT-15" value="" style="endArrow=none;dashed=1;html=1;rounded=0;fontSize=16;" edge="1" parent="1">
          <mxGeometry width="50" height="50" relative="1" as="geometry">
            <mxPoint x="430" y="720" as="sourcePoint" />
            <mxPoint x="430" y="410" as="targetPoint" />
          </mxGeometry>
        </mxCell>
        <mxCell id="arTTNSpRISgWZkCejGCT-16" value="" style="endArrow=none;dashed=1;html=1;rounded=0;fontSize=16;" edge="1" parent="1">
          <mxGeometry width="50" height="50" relative="1" as="geometry">
            <mxPoint x="610" y="720" as="sourcePoint" />
            <mxPoint x="610" y="410" as="targetPoint" />
          </mxGeometry>
        </mxCell>
        <mxCell id="arTTNSpRISgWZkCejGCT-19" style="edgeStyle=orthogonalEdgeStyle;rounded=0;orthogonalLoop=1;jettySize=auto;html=1;exitX=1;exitY=0.5;exitDx=0;exitDy=0;entryX=0;entryY=0.5;entryDx=0;entryDy=0;fontSize=16;" edge="1" parent="1" source="arTTNSpRISgWZkCejGCT-17" target="arTTNSpRISgWZkCejGCT-9">
          <mxGeometry relative="1" as="geometry" />
        </mxCell>
        <mxCell id="arTTNSpRISgWZkCejGCT-17" value="DWS" style="rounded=0;whiteSpace=wrap;html=1;" diagramCategory="general" diagramName="Rectangle" vertex="1" parent="1">
          <mxGeometry x="630" y="515" width="120" height="60" as="geometry" />
        </mxCell>
        <mxCell id="arTTNSpRISgWZkCejGCT-20" value="" style="endArrow=none;dashed=1;html=1;rounded=0;fontSize=16;" edge="1" parent="1">
          <mxGeometry width="50" height="50" relative="1" as="geometry">
            <mxPoint x="760" y="730" as="sourcePoint" />
            <mxPoint x="760" y="420" as="targetPoint" />
          </mxGeometry>
        </mxCell>
        <mxCell id="arTTNSpRISgWZkCejGCT-22" value="引入dws底表解决" style="text;html=1;strokeColor=none;fillColor=none;align=center;verticalAlign=middle;whiteSpace=wrap;rounded=0;fontSize=16;" vertex="1" parent="1">
          <mxGeometry x="440" y="690" width="160" height="30" as="geometry" />
        </mxCell>
        <mxCell id="arTTNSpRISgWZkCejGCT-23" value="大宽表" style="text;html=1;strokeColor=none;fillColor=none;align=center;verticalAlign=middle;whiteSpace=wrap;rounded=0;fontSize=16;" vertex="1" parent="1">
          <mxGeometry x="440" y="410" width="160" height="30" as="geometry" />
        </mxCell>
      </root>
    </mxGraphModel>
  </diagram>
</mxfile>
